<?xml version="1.0" encoding="UTF-8"?>
<!DOCTYPE svg  PUBLIC '-//W3C//DTD SVG 1.1//EN'  'http://www.w3.org/Graphics/SVG/1.1/DTD/svg11.dtd'>
<svg width="1000px" height="293.84px" enable-background="new -194 249.078 1000 293.844" version="1.1" viewBox="-194 249.078 1000 293.844" xml:space="preserve" xmlns="http://www.w3.org/2000/svg">
<title>ng-logo</title>
<style>
	path {
	color: #B2B6BC;
	}
</style>
<g fill="#B2B6BC">
	<path d="m-194 542.92v-293.84h205.04v293.84h-205.04zm175.37-29.601v-234.64h-145.85v234.64h145.85z"/>
		<path d="m147.29 380.88h-12.686c-16.626-23.508-33.183-46.872-49.666-73.317v73.317h-14.332v-102.27h12.684c16.628 23.364 33.183 46.585 49.523 72.888v-72.888h14.334v102.27h0.143z"/>
		<path d="m180.54 340.46c4.085-13.402 8.17-25.873 11.825-41.639 4.085 15.767 7.741 28.237 11.539 41.639h-23.364zm6.736-61.779l-35.405 102.2h15.195l8.886-27.879h30.818l8.026 27.879h19.566l-32.323-102.27h-14.332l-0.431 0.072z"/>
		<path d="m250.99 380.88v-88.511h-26.877v-13.689h71.097v13.689h-26.875v88.511h-17.559 0.214z"/>
		<path d="m301.16 380.88v-102.27h17.415v102.27h-17.415z"/>
		<path d="m372.54 367.83c-18.275 0-24.726-20.139-24.726-39.705s7.167-36.838 24.726-36.838c17.56 0 24.655 17.99 24.655 36.838 0 18.85-6.379 39.705-24.655 39.705zm0 14.334c26.732 0 43.359-23.793 43.359-54.325 0-28.667-18.419-51.458-43.359-51.458s-43.36 22.791-43.36 51.458c0 30.96 16.629 54.827 43.36 54.827v-0.502z"/>
		<path d="m503.05 380.88h-12.686c-16.626-23.508-33.183-46.872-49.666-73.317v73.317h-14.333v-102.27h12.685c16.627 23.364 33.183 46.585 49.522 72.888v-72.888h14.334v102.27h0.144z"/>
		<path d="m536.52 340.46c4.086-13.402 8.171-25.873 11.825-41.639 4.085 15.767 7.739 28.237 11.54 41.639h-23.652 0.287zm6.737-61.779l-35.333 102.27h15.194l8.887-27.88h30.818l8.026 27.88h19.566l-32.61-102.27h-14.548z"/>
		<path d="m595.51 278.6h17.417v88.511h34.616v13.761h-52.033v-102.27z"/>
		<path d="m136.46 466.45v42.212c-9.222 3.894-19.089 6.032-29.096 6.307-30.102 0-49.096-23.364-49.096-53.464 0-27.881 18.994-52.318 49.668-52.318 8.875 0.049 17.523 2.799 24.798 7.883l-5.662 12.112c-5.663-3.386-12.109-5.237-18.704-5.374-18.707 0-31.393 14.764-31.393 37.984s14.333 38.558 29.672 38.558c4.229 0.183 8.438-0.68 12.254-2.509v-31.391h17.559z"/>
		<path d="m199.18 424.67h-29.241v28.024h28.667v13.761h-28.667v33.039h34.473v13.76h-52.031v-102.41h46.729v13.76l0.07 0.07z"/>
		<path d="m253.22 500.35c-18.275 0-24.654-20.14-24.654-39.704 0-19.566 7.167-36.839 24.654-36.839 17.488 0 24.727 17.989 24.727 36.839-1e-3 18.848-6.451 39.704-24.727 39.704zm0 14.334c26.732 0 43.36-23.795 43.36-54.325 0-28.667-18.419-51.458-43.36-51.458-24.939 0-43.358 22.791-43.358 51.458 0 30.817 16.626 54.611 43.358 54.611v-0.286z"/>
		<path d="m380.79 466.45v42.212c-9.222 3.894-19.091 6.032-29.098 6.307-30.101 0-49.094-23.364-49.094-53.464 0-27.881 18.993-52.318 49.668-52.318 8.874 0.049 17.522 2.799 24.797 7.883l-5.661 12.112c-5.664-3.386-12.111-5.237-18.707-5.374-18.705 0-31.391 14.764-31.391 37.984s14.334 38.558 29.671 38.558c4.229 0.183 8.438-0.68 12.256-2.509v-31.391h17.559z"/>
		<path d="m414.4 424.67h7.741c8.153-0.807 15.417 5.148 16.225 13.303 0.105 1.059 0.096 2.126-0.027 3.182 1.29 9.852-5.652 18.883-15.503 20.172-0.373 0.048-0.748 0.086-1.125 0.111l-7.167 0.43v-37.269l-0.144 0.071zm44.436 88.514l-20.283-42.357c11.024-6.12 17.817-17.779 17.703-30.388 0-19.853-12.113-29.527-31.678-29.527h-27.306v102.27h17.559v-38.56h7.884l16.482 38.56h19.998-0.359z"/>
		<path d="m487.72 472.76c4.085-13.402 8.17-25.873 11.826-41.641 4.085 15.768 7.739 28.166 11.537 41.641h-23.649 0.286zm6.736-61.922l-35.332 102.27h15.266l8.887-27.881h30.816l8.027 27.881h19.566l-32.609-102.27h-14.621z"/>
		<path d="m574.72 410.84h-27.306v102.27h17.559v-38.487h7.885c18.444 0.124 33.497-14.728 33.62-33.173 4e-3 -0.338 0-0.676-8e-3 -1.013-0.287-19.853-12.4-29.598-31.75-29.598zm-2.509 50.525l-7.167 0.43v-37.195h7.884c8.161-0.727 15.367 5.299 16.095 13.459 0.09 1.008 0.075 2.021-0.041 3.024 1.32 9.888-5.625 18.972-15.513 20.291-0.488 0.065-0.979 0.11-1.472 0.136l0.214-0.145z"/>
		<path d="m687.46 513.18h-17.559v-49.237h-36.408v49.237h-17.415v-102.34h17.415v39.273h36.408v-38.988h17.559v102.06z"/>
		<path d="m704.23 513.18v-102.34h17.415v102.27h-17.415v0.073z"/>
		<path d="m800.48 429.47c-5.403-3.417-11.604-5.368-17.989-5.661-17.847 0-30.818 14.762-30.818 37.982s14.335 38.559 31.249 38.559c6.214-0.016 12.299-1.778 17.559-5.088l4.802 12.686c-6.887 4.468-14.871 6.947-23.077 7.166-30.102 0-49.093-23.364-49.093-53.466 0-27.878 18.848-52.317 49.379-52.317 8.439 0.262 16.615 3.004 23.508 7.884l-5.52 12.255z"/>
</g>
</svg>
